<svg xmlns="http://www.w3.org/2000/svg" xmlns:xlink="http://www.w3.org/1999/xlink" version="1.1" x="0px" y="0px" viewBox="0 0 32 40" enable-background="new 0 0 32 32" xml:space="preserve"><g><path fill="#C0C0C0" d="M28.882,12.234c-0.422-0.943-0.466-1.018-0.698-1.426c-0.004-0.008-0.023-0.042-0.04-0.071   c-0.006-0.009-0.012-0.018-0.017-0.028c-0.579-1.01-1.446-1.832-2.506-2.378C25.19,8.11,24.736,7.943,24.273,7.83   c-1.639-0.39-3.099-0.125-4.408,0.622L19.21,8.905c-0.432,0.294-0.946,0.629-1.495,0.878c-0.017,0.008-0.032,0.01-0.049,0.017   c-0.011,0.006-0.014,0.018-0.025,0.023c-0.015,0.006-0.142,0.052-0.328,0.102c-0.44,0.158-0.862,0.262-1.266,0.262   c-0.331,0-0.751-0.114-1.214-0.284c-0.133-0.031-0.256-0.046-0.396-0.089c-0.075-0.023-0.125-0.08-0.173-0.135   C13.61,9.377,12.86,8.95,12.002,8.38l-0.09-0.06C11.5,8.109,11.048,7.941,10.59,7.83c-0.49-0.118-0.95-0.175-1.407-0.175   c-2.15,0-4.159,1.155-5.244,3.014c-0.314,0.538-0.314,0.538-0.883,1.777C0.144,20.901,5.613,26.88,7.359,28.51   c0.152,0.141,0.266,0.24,0.33,0.297c1.196,1.308,2.83,2.033,4.528,2.033c0.425,0,0.864-0.058,1.38-0.181   c0.534-0.126,0.986-0.286,1.381-0.49c0.283-0.146,0.554-0.313,0.806-0.496c0.072-0.052,0.157-0.078,0.241-0.078   c0.085,0,0.169,0.027,0.242,0.079c0.402,0.292,0.877,0.545,1.411,0.75c0.443,0.17,0.895,0.288,1.344,0.347   c0.721,0.097,1.475,0.076,2.249-0.112c0.451-0.111,0.892-0.276,1.31-0.491c0.646-0.331,1.216-0.76,1.694-1.274   c0.03-0.033,0.065-0.061,0.104-0.081C25.051,28.237,32.273,21.748,28.882,12.234z M24.088,12.535   c-0.174-0.215-0.141-0.529,0.074-0.703c0.216-0.175,0.529-0.141,0.703,0.074c0.173,0.214,0.331,0.442,0.473,0.684   c0.14,0.238,0.06,0.545-0.179,0.685c-0.079,0.046-0.167,0.068-0.253,0.068c-0.171,0-0.338-0.088-0.432-0.247   C24.358,12.897,24.229,12.71,24.088,12.535z M25.036,21.326c-0.078,0.114-0.205,0.175-0.334,0.175c-0.08,0-0.161-0.023-0.231-0.072   c-0.185-0.127-0.23-0.381-0.103-0.565c0.882-1.275,1.083-3.987,0.787-5.193c-0.053-0.218,0.081-0.438,0.299-0.492   c0.22-0.056,0.438,0.081,0.492,0.299C26.28,16.843,26.091,19.801,25.036,21.326z"/><path fill="#C0C0C0" d="M19.774,3.89c1.713-1.873,4.574-1.913,6.112-1.933l0.129-0.002c0.002,0,0.004,0,0.005,0c0.139,0,0.223,0.074,0.261,0.119   c0.038,0.045,0.099,0.141,0.076,0.28l-0.044,0.269c-0.21,1.275-0.495,3.021-1.853,4.023c-0.139,0.103-0.296,0.201-0.456,0.299   c-1.661-0.291-3.176,0.012-4.573,0.812l-0.684,0.469c-0.286,0.195-0.615,0.398-0.954,0.586l-0.002-0.007   C17.777,8.709,17.445,6.44,19.774,3.89z"/><path fill="#C0C0C0" d="M14.145,2.412c-0.255-0.281-0.335-0.485-0.299-0.561c0.133-0.289,1.247-0.468,2.149-0.438c0.009,0,0.019,0,0.028,0   c0.905-0.029,2.016,0.151,2.15,0.438c0.035,0.077-0.043,0.28-0.298,0.561c-1.404,1.548-1.107,4.963-0.905,6.42   c0.007,0.067,0.014,0.115,0.016,0.128l0.004,0.02c0.008,0.054,0.017,0.128,0.024,0.174c-0.377,0.084-1.077,0.171-1.955-0.027   c-0.012-0.005-0.023-0.008-0.036-0.013C15.212,7.886,15.648,4.07,14.145,2.412z"/></g></svg>
