<svg xmlns="http://www.w3.org/2000/svg" xmlns:xlink="http://www.w3.org/1999/xlink" version="1.1" x="0px" y="0px" viewBox="0 0 32 40" enable-background="new 0 0 32 32" xml:space="preserve"><g><g><path d="M30.2,21.6l-1.7-9.7c-0.2-1.2-0.9-2.2-1.8-2.9c-0.9-0.6-1.9-0.8-2.9-0.5c-0.8,0.2-1.6,0.7-2.1,1.4H10.3    C9.8,9.2,9.1,8.7,8.2,8.5c-1-0.2-2,0-2.9,0.5c-1,0.6-1.6,1.7-1.8,2.9l-1.7,9.7c-0.3,1.9,0.8,3.8,2.6,4.2c1.8,0.4,3.6-0.7,4.1-2.6    l0.4-1.4c0.6,0.5,1.3,0.8,2.1,0.8c1.8,0,3.3-1.5,3.3-3.3h3.5c0,1.8,1.5,3.3,3.3,3.3c0.8,0,1.5-0.3,2.1-0.7l0.4,1.4    c0.4,1.6,1.8,2.7,3.3,2.7c0.2,0,0.5,0,0.7-0.1C29.4,25.4,30.5,23.5,30.2,21.6z M9,15.1v0.1c0,0.6-0.4,1-1,1s-1-0.4-1-1v-0.1H6.9    c-0.6,0-1-0.4-1-1s0.4-1,1-1H7V13c0-0.6,0.4-1,1-1s1,0.4,1,1v0.1h0.1c0.6,0,1,0.4,1,1s-0.4,1-1,1H9z M10.9,20.5    c-0.7,0-1.3-0.6-1.3-1.3c0-0.1,0-0.2,0-0.4l0.1-0.2c0.2-0.5,0.7-0.8,1.2-0.8c0.5,0,1,0.3,1.2,0.8c0.1,0.2,0.1,0.4,0.1,0.6    C12.2,19.9,11.6,20.5,10.9,20.5z M17,15.1h-2c-0.6,0-1-0.4-1-1s0.4-1,1-1h2c0.6,0,1,0.4,1,1S17.6,15.1,17,15.1z M21.1,20.5    c-0.7,0-1.3-0.6-1.3-1.3c0-0.2,0-0.4,0.1-0.6c0.2-0.5,0.7-0.8,1.2-0.8c0.1,0,0.3,0,0.4,0.1c0,0,0.1,0,0.1,0c0.1,0,0.2,0.1,0.2,0.1    c0,0,0.1,0.1,0.1,0.1c0.1,0,0.1,0.1,0.2,0.1c0,0,0.1,0.1,0.1,0.1c0,0.1,0.1,0.1,0.1,0.2c0,0,0,0,0,0.1l0.1,0.3c0,0.1,0,0.1,0,0.2    C22.5,19.9,21.8,20.5,21.1,20.5z M25.1,15.1H25v0.1c0,0.6-0.4,1-1,1s-1-0.4-1-1v-0.1h-0.1c-0.6,0-1-0.4-1-1s0.4-1,1-1H23V13    c0-0.6,0.4-1,1-1s1,0.4,1,1v0.1h0.1c0.6,0,1,0.4,1,1S25.6,15.1,25.1,15.1z"/></g></g><text x="0" y="47" fill="#000000" font-size="5px" font-weight="bold" font-family="'Helvetica Neue', Helvetica, Arial-Unicode, Arial, Sans-serif">Created by Andre Buand</text><text x="0" y="52" fill="#000000" font-size="5px" font-weight="bold" font-family="'Helvetica Neue', Helvetica, Arial-Unicode, Arial, Sans-serif">from the Noun Project</text></svg>